<svg xmlns="http://www.w3.org/2000/svg" width="240" height="39"><g fill="none"><path fill="#FF52C1" d="M27.967.879C20.242.875 12.182 2.615 4.047 4.872c-1.033.208-2.041.884-2.574 1.72C.983 7.38.805 8.171.652 9c-.79 4.428-.694 8.776-.53 13.594.036 1.103.2 2.41.715 3.205.538.803 1.46 1.313 2.561 1.48a96 96 0 0 0 4.232.525l-.312 8.698c-.048.692.29 1.267.71 1.598.376.286.795.413 1.225.445.86.065 1.869-.303 2.37-1.257 2.195-4.224 3.572-6.089 6.317-8.895 7.158.176 13.407-.222 20.482-.745 2.501-.065 4.218-2.11 4.672-3.743 1.357-4.232 1.568-9.456 1.712-14.737.061-2.093-.665-4.148-1.95-5.234-1.222-.991-2.702-1.35-4.058-1.718C35.031 1.363 31.263.905 27.967.879m10.29 3.31c1.358.369 2.555.724 3.31 1.337 1.26 1.339 1.218 2.23 1.2 3.675-.142 5.122-.388 10.093-1.544 13.86-.498 1.405-1.366 2.405-3.006 2.556-7.208.533-13.462.945-20.707.739a1.03 1.03 0 0 0-.763.302c-3.044 3.074-4.601 5.21-6.921 9.676-.054.102-.171.164-.315.175-.097-.005-.136-.08-.142-.148l.314-9.432c.019-.509-.401-.995-.907-1.05a96 96 0 0 1-5.06-.62c-.726-.111-.994-.31-1.193-.606-.346-.825-.338-1.335-.365-2.128-.162-4.775-.242-8.948.491-13.1.068-.614.298-1.242.542-1.767.404-.632 1.023-.725 1.644-.897 7.956-2.197 15.74-3.84 23.068-3.845 3.592.13 7.364.49 10.354 1.273m-27.479 8.09c-1.096 1.313-.987 3.096-.14 4.29.442.625 1.132 1.128 1.972 1.242 1.091.09 1.783-.352 2.53-.86 1.353-1.176 1.49-3.228.461-4.71-.524-.755-1.362-1.208-2.218-1.24-1.172.012-1.968.535-2.605 1.277zm11.856-1.072c-1.092.035-1.975.791-2.514 1.607-.617.933-.977 2.101-.478 3.246.96 2.203 4.277 2.176 5.6-.063.61-1.032.454-2.205 0-3.056-.452-.85-1.136-1.543-2.131-1.702a2.5 2.5 0 0 0-.477-.032m9.625.207c-.34-.008-.69.024-1.018.111-1.312.35-2.429 1.704-2.26 3.437.086.872.487 1.722 1.21 2.308s1.773.847 2.88.62c1.272-.26 2.06-1.285 2.323-2.275s.197-1.999-.414-2.817a3.47 3.47 0 0 0-2.72-1.384zm-18.965 1.623c.245.002.438.08.637.366.445.642.321 1.615-.128 2.005-.447.39-.726.424-.922.398-.196-.027-.395-.162-.573-.414-.34-.48-.44-1.256.007-1.81.238-.316.675-.513.98-.545zm9.483.223c.038.006.464.253.668.636s.242.739.048 1.066c-.577.976-1.804.712-1.99.287-.07-.162-.017-.813.32-1.32.335-.509.757-.7.954-.67zm10.564.748c.062.083.213.64.096 1.082-.118.442-.31.715-.78.811-.602.124-.94 0-1.193-.207-.254-.205-.425-.552-.462-.923-.09-.92.24-1.133.764-1.273.61-.15 1.3.112 1.575.51"/><path fill="#00252E" d="M57.61 4.996q.023-.39.287-.701a.88.88 0 0 1 .701-.31h6.826q.345 0 .712.287a.88.88 0 0 1 .368.724v10.893h11.421V4.996q0-.414.287-.712.287-.3.747-.3h6.734q.459 0 .804.23t.345.736V37.1q0 .506-.3.758-.298.253-.78.253h-6.803q-.459 0-.747-.253-.287-.252-.287-.758V24.047H66.504V37.1q0 .482-.31.747-.31.264-.84.264h-6.756q-.964 0-.988-.896zm62.875 32.725q-.299.252-.632.321a3 3 0 0 1-.631.07h-3.47q-.414 0-.713-.15-.3-.15-.506-.402a2.4 2.4 0 0 1-.344-.575 5 5 0 0 1-.23-.666l-.712-2.942q-.345.712-1 1.62a8.5 8.5 0 0 1-1.666 1.7q-1.011.794-2.413 1.334t-3.218.54q-2.62 0-4.757-1.011a10.9 10.9 0 0 1-3.642-2.758q-1.505-1.746-2.332-4.08-.828-2.332-.828-4.974V10.695q0-.873.38-1.321.378-.448 1.206-.448h5.308q.99 0 1.356.333.368.333.368 1.298v14.96q0 .99.448 1.874t1.184 1.562q.735.679 1.666 1.069t1.896.39q.827 0 1.712-.39a6.4 6.4 0 0 0 1.631-1.046q.747-.655 1.23-1.54a3.85 3.85 0 0 0 .482-1.872V10.626q0-.39.15-.781.15-.39.448-.598.299-.183.563-.252.265-.07.609-.07h5.194q.987 0 1.424.483t.437 1.287v25.716q0 .436-.195.804c-.195.368-.31.437-.54.574zm26.681-3.172q-.621.62-1.367 1.333-.747.713-1.643 1.333a9.3 9.3 0 0 1-1.93 1.023 6.1 6.1 0 0 1-2.23.402q-3.125 0-5.757-1.172a13.8 13.8 0 0 1-4.527-3.206q-1.896-2.034-2.964-4.792-1.07-2.757-1.069-5.929 0-3.195 1.069-5.94t2.964-4.78a13.6 13.6 0 0 1 4.527-3.194q2.632-1.161 5.757-1.161 1.264 0 2.31.368a8.5 8.5 0 0 1 1.907.942q.862.575 1.586 1.298.723.724 1.367 1.414V1.985q0-.735.448-1.24.448-.506 1.345-.506h5.17q.3 0 .632.126.333.127.61.357.274.23.447.551t.173.712v34.357q0 1.77-1.862 1.77h-4.504q-.46-.001-.712-.116a1.1 1.1 0 0 1-.426-.333 2.3 2.3 0 0 1-.31-.551 17 17 0 0 0-.344-.77zm-13.214-11.008a8.4 8.4 0 0 0 .471 2.839q.47 1.32 1.345 2.286a6.4 6.4 0 0 0 2.102 1.528q1.23.564 2.724.563 1.47 0 2.769-.528a7.1 7.1 0 0 0 2.263-1.46 7.3 7.3 0 0 0 1.552-2.194q.585-1.264.655-2.712v-.322a7.3 7.3 0 0 0-.552-2.803 7.4 7.4 0 0 0-1.528-2.344 7.2 7.2 0 0 0-2.298-1.597 7 7 0 0 0-2.861-.586q-1.494 0-2.724.586t-2.102 1.597a7.2 7.2 0 0 0-1.345 2.344 8.4 8.4 0 0 0-.47 2.803zm48.72 11.008q-.621.62-1.368 1.333t-1.643 1.333a9.3 9.3 0 0 1-1.93 1.023 6.1 6.1 0 0 1-2.23.402q-3.125 0-5.756-1.172a13.8 13.8 0 0 1-4.528-3.206q-1.895-2.034-2.964-4.792t-1.069-5.929q0-3.195 1.069-5.94c1.069-2.745 1.7-3.424 2.964-4.78a13.6 13.6 0 0 1 4.528-3.194q2.631-1.161 5.756-1.161 1.264 0 2.31.368a8.5 8.5 0 0 1 1.907.942q.862.575 1.586 1.298t1.367 1.414V1.985q0-.735.448-1.24.449-.506 1.345-.506h5.17q.3 0 .632.126.334.127.61.357t.448.551q.171.322.172.712v34.357q0 1.77-1.862 1.77h-4.504q-.46-.001-.712-.116a1.1 1.1 0 0 1-.425-.333 2.3 2.3 0 0 1-.31-.551 17 17 0 0 0-.345-.77zm-13.215-11.008a8.4 8.4 0 0 0 .471 2.839q.472 1.32 1.345 2.286a6.4 6.4 0 0 0 2.103 1.528q1.23.564 2.723.563 1.47 0 2.769-.528a7.1 7.1 0 0 0 2.264-1.46 7.3 7.3 0 0 0 1.55-2.194q.587-1.264.656-2.712v-.322a7.3 7.3 0 0 0-.552-2.803 7.4 7.4 0 0 0-1.528-2.344 7.2 7.2 0 0 0-2.298-1.597 7 7 0 0 0-2.861-.586q-1.494 0-2.723.586a6.35 6.35 0 0 0-2.103 1.597 7.2 7.2 0 0 0-1.345 2.344 8.4 8.4 0 0 0-.47 2.803zM197.61 2.008q0-.735.367-1.24.369-.506 1.264-.506h5.63q.231 0 .483.126a1.7 1.7 0 0 1 .471.357q.218.23.368.551t.15.712v34.334q0 .873-.495 1.321-.493.448-1.275.448h-5.332q-.895 0-1.264-.448-.367-.449-.367-1.321zm38.7 32.61a15.3 15.3 0 0 1-4.55 2.907 13.9 13.9 0 0 1-5.355 1.046q-3.15 0-5.952-1.15a15.5 15.5 0 0 1-4.918-3.182 15.3 15.3 0 0 1-3.355-4.792q-1.241-2.757-1.241-5.998 0-2.022.494-3.918a15.5 15.5 0 0 1 1.402-3.55 15 15 0 0 1 2.206-3.045 14 14 0 0 1 2.907-2.379 14.3 14.3 0 0 1 3.493-1.54 14 14 0 0 1 3.975-.551q1.908 0 3.7.506a14.4 14.4 0 0 1 6.251 3.631 15 15 0 0 1 2.252 2.815 13.6 13.6 0 0 1 1.46 3.263q.516 1.735.517 3.573 0 1.195-.035 1.954t-.356 1.206q-.322.45-1.069.62-.747.173-2.194.173h-16.546q.23 1.47.93 2.46a5.8 5.8 0 0 0 1.62 1.573q.92.586 1.954.84a8.2 8.2 0 0 0 1.953.252q.827 0 1.7-.172a12 12 0 0 0 1.69-.46 9.6 9.6 0 0 0 1.493-.667 5 5 0 0 0 1.092-.792q.368-.3.632-.449t.563-.149.61.207a5 5 0 0 1 .7.597l2.436 2.758q.252.3.322.54.069.242.069.494 0 .46-.253.793a2.9 2.9 0 0 1-.598.586zm-11.054-19.143q-.897 0-1.735.356a6.6 6.6 0 0 0-1.575.954q-.735.597-1.321 1.356a8.3 8.3 0 0 0-.954 1.54h11.743a13.5 13.5 0 0 0-1.045-1.655 7 7 0 0 0-1.287-1.333 5.6 5.6 0 0 0-1.655-.896q-.93-.322-2.171-.322"/></g></svg>